<svg xmlns="http://www.w3.org/2000/svg" viewBox="0 0 1117.5 1036.52179">
  <defs>
    <style>
      .cls-1, .cls-3 {
        fill: #fff;
      }

      .cls-2 {
        fill: #3f92d2;
      }

      .cls-3 {
        stroke: #fff;
        stroke-miterlimit: 10;
      }
    </style>
  </defs>
  <title>logo bd know</title>
  <g id="Calque_1" data-name="Calque 1">
    <path class="cls-1" d="M1514,26.50824V792.28009H1452.075l1.42578,6.13232,56.71082,243.8985L1258.76123,793.72443l-1.46094-1.44434H406.5V26.50824H1514m5-5H401.5V797.28009h853.746L1519,1058.03l-60.629-260.74994H1519V21.50824Z" transform="translate(-401.5 -21.50824)"/>
  </g>
  <g id="Calque_2" data-name="Calque 2">
    <g>
      <path class="cls-2" d="M788.832,491.25537a8.9468,8.9468,0,0,1-8.4541-11.876L897.36035,141.69824a8.95132,8.95132,0,0,1,8.4541-6.01855h241.38184a8.94809,8.94809,0,0,1,8.45508,11.87646L1038.669,485.23682a8.95511,8.95511,0,0,1-8.45508,6.01855Z" transform="translate(-401.5 -21.50824)"/>
      <path class="cls-1" d="M1147.19641,139.67966a4.94724,4.94724,0,0,1,4.67468,6.5668l-116.9823,337.68112a4.95039,4.95039,0,0,1-4.6748,3.32794H788.832a4.9473,4.9473,0,0,1-4.67474-6.56674l116.9823-337.6812a4.95053,4.95053,0,0,1,4.67486-3.32792h241.382m0-8h-241.382a12.94737,12.94737,0,0,0-12.234,8.70913L776.598,478.07007a12.94728,12.94728,0,0,0,12.234,17.18545h241.382a12.94743,12.94743,0,0,0,12.234-8.70907l116.98242-337.68126a12.94729,12.94729,0,0,0-12.234-17.18553Z" transform="translate(-401.5 -21.50824)"/>
    </g>
    <path class="cls-1" d="M777.45085,477.7474h241.382a12.94732,12.94732,0,0,0,12.234-8.70911L1148.04929,131.357a12.94732,12.94732,0,0,0-12.234-17.18552h-241.382a12.94733,12.94733,0,0,0-12.234,8.70911L765.21686,460.56188A12.94731,12.94731,0,0,0,777.45085,477.7474Z" transform="translate(-401.5 -21.50824)"/>
    <path class="cls-2" d="M1060.67759,155.54267H923.31041a9.73863,9.73863,0,0,0,0,19.47726h137.36718a9.73863,9.73863,0,1,0,0-19.47726Z" transform="translate(-401.5 -21.50824)"/>
    <path class="cls-2" d="M1037.03279,226.31009H899.66548a9.73864,9.73864,0,0,0,0,19.47727h137.36731a9.73863,9.73863,0,0,0,0-19.47727Z" transform="translate(-401.5 -21.50824)"/>
    <path class="cls-2" d="M1049.6434,190.60169H911.48788a9.73864,9.73864,0,0,0,0,19.47727H1049.6434a9.73863,9.73863,0,0,0,0-19.47727Z" transform="translate(-401.5 -21.50824)"/>
  </g>
  <g id="Calque_3" data-name="Calque 3">
    <g>
      <path class="cls-3" d="M721.415,525.20264H879.82422a69.662,69.662,0,0,0-23.59277,8.437,110.48841,110.48841,0,0,0-19.98145,15.543q-9.87451,9.51855-24.43555,24.21777-14.56934,14.70411-17.21338,17.834a10.262,10.262,0,0,0-2.64794,6.748q0,2.89453,3.37011,7.10938,3.36841,4.2202,30.334,36.99609,26.959,32.77589,50.0747,59.042Q898.84277,727.396,918.22314,741.375q19.37624,13.97754,37.67627,13.97852,15.167,0,23.71387-9.42676a32.67925,32.67925,0,0,0,8.5459-22.73145,18.23738,18.23738,0,0,0-2.64746-10.27246q-2.65284-3.99462-5.53711-7.8584a4.77718,4.77718,0,0,1,2.76758-4.71289,12.37545,12.37545,0,0,1,5.417-1.332,11.28042,11.28042,0,0,1,10.47168,6.25977q3.48779,6.25635,3.49219,15.64843,0,16.125-12.15821,28.28711-12.15966,12.15381-31.89843,12.15723-24.79908,0-52.1211-18.89844-27.32665-18.90234-55.4917-48.14843-28.16674-29.25-79.686-86.78809V664.834q0,14.20752,6.01855,19.74122a49.65626,49.65626,0,0,0,14.68506,9.14843H709.37793q17.33349-3.854,23.71289-11.31543A26.19453,26.19453,0,0,0,739.4707,664.834V550.48047q0-10.11036-6.6206-14.68506a26.66566,26.66566,0,0,0-15.52783-4.57422q-26.00025,0-40.084,12.15772-14.083,12.15966-14.08349,37.19433,0,23.83447,10.71337,41.28809,10.70947,17.458,35.50977,24.917-30.81885,0-44.5376-16.85254-13.72266-16.84716-13.72265-43.09277,0-28.16748,20.7041-44.89844Q692.52369,525.20386,721.415,525.20264Zm49.35254,25.27783v48.38965q12.75732-12.51562,34.06494-32.98145,21.30615-20.45948,25.0376-24.55664,3.72949-4.08984,3.73144-6.25879,0-3.61157-4.93506-4.69482a68.21278,68.21278,0,0,0-13.84277-1.0835h-7.22266q-18.2981,0-27.56494,3.73194Q770.76588,536.76221,770.76758,550.48047Z" transform="translate(-401.5 -21.50824)"/>
      <path class="cls-3" d="M950.11963,666.75977q0,5.29833,3.66357,5.29687,4.88086,0,13.42969-7.94531a38.12738,38.12738,0,0,1-12.01123,14.02734q-7.2561,4.99365-12.9624,4.99219a13.91086,13.91086,0,0,1-10.34473-3.96094q-3.92724-3.96093-3.92334-12.12012V613.04a25.5404,25.5404,0,0,0-1.22265-8.76074q-1.21875-3.23877-6.835-3.24219-6.10473,0-16.11816,12.63867-10.01,12.63867-10.00977,14.80567v40.74609q-1.196,5.0332-8.21923,9.46777a25.96106,25.96106,0,0,1-13.9292,4.43555V601.02539q0-3.83643-2.88916-3.84082-3.61085,0-13.72217,6.5a138.216,138.216,0,0,1,16.62646-18.17578q7.53809-6.61816,11.84522-6.62012,6.69726,0,8.49365,7.34278,1.79443,7.34619,1.79443,22.75v8.90722a234.90512,234.90512,0,0,1,19.77491-26.84277q10.42675-12.15381,21.9375-12.15723,8.87035,0,11.74414,6.01856,2.87767,6.0205,2.87744,18.05566v63.79688Z" transform="translate(-401.5 -21.50824)"/>
      <path class="cls-3" d="M1027.63867,577.68457q19.73732,0,30.93555,14.17383,11.19434,14.17383,11.19531,35.06543,0,22.10155-16.37109,39.15527-16.374,17.05078-36.59278,17.05176-19.021,0-30.334-14.291-11.31885-14.29248-11.31543-35.91211,0-21.61083,15.88965-38.42871Q1006.93506,577.68408,1027.63867,577.68457ZM996.3418,618.76563a120.931,120.931,0,0,0,5.17578,36.24707q5.17529,16.56591,23.23242,16.5625,10.34766,0,16.85156-8.64063,6.501-8.644,6.5-22.085a94.88574,94.88574,0,0,0-6.5-35.64453Q1035.102,588.99952,1019.45313,589a19.93217,19.93217,0,0,0-16.85157,8.40332Q996.33789,605.80421,996.3418,618.76563Z" transform="translate(-401.5 -21.50824)"/>
      <path class="cls-3" d="M1239.97461,569.74023q3.84668,0,10.833,8.18555,6.98,8.187,6.98144,15.88867,0,4.82373-6.25976,17.24707-6.26221,12.42482-20.3418,39.55762-14.083,27.13915-17.69531,35.82129-18.29883-36.68115-36.35156-73.36621-3.85548,11.07569-18.89844,39.72266-15.04981,28.65234-16.73242,32.5-19.2627-44.05518-31.65821-66.80567-12.40137-22.75049-19.86133-22.751a24.60077,24.60077,0,0,0-8.06445,1.68555,49.60345,49.60345,0,0,0-10.95312,6.01856q5.05371-8.18116,15.166-16.97266,10.11181-8.78467,19.25977-8.78711,9.627,0,26,34.42676,16.36962,34.42968,20.22265,41.167,1.68165-2.16651,10.95411-22.14844,9.26513-19.98046,11.19433-25.27832-2.16649-3.126-4.333-6.5a17.33971,17.33971,0,0,0-8.667-5.53711,131.44316,131.44316,0,0,1,8.18555-10.71289q4.57031-5.417,9.87012-5.417,5.7788,0,10.59277,9.3291,4.81347,9.33252,16.85156,35.61817,12.03663,26.28809,17.334,30.64648,4.333-5.5752,10.35156-19.27832,6.01611-13.69921,6.01953-18.31152,0-7.03125-5.6582-15.28028a42.4619,42.4619,0,0,0-12.87891-12.6123,85.23008,85.23008,0,0,1,9.87012-13Q1236.11964,569.74072,1239.97461,569.74023Z" transform="translate(-401.5 -21.50824)"/>
    </g>
  </g>
</svg>
