<svg id="Calque_1" data-name="Calque 1" xmlns="http://www.w3.org/2000/svg" viewBox="0 0 1322.46883 1025.38139">
  <defs>
    <style>
      .cls-1, .cls-2 {
        fill: #fff;
      }

      .cls-2 {
        stroke: #fff;
        stroke-miterlimit: 10;
        stroke-width: 5px;
      }
    </style>
  </defs>
  <title>logo bd need</title>
  <g>
    <path class="cls-1" d="M1621,401.40712c-5.52309-56.89494-63.30287-384.86969-661.23434-369.4817C959.76566,31.92542,1587.26189-44.1209,1621,401.40712Z" transform="translate(-298.53117 -27)"/>
    <path class="cls-1" d="M298.53117,417.99841c5.52294,56.89494,63.30287,384.86984,661.23449,369.48184,0,0-199.74016,23.56865-379.63286-34.91487l.75306.54031-202.76813,299.2757,67.39472-365.47988C366.83994,630.833,308.21747,545.91159,298.53117,417.99841Z" transform="translate(-298.53117 -27)"/>
  </g>
  <path class="cls-2" d="M919.72461,106.98242q38.46972,0,57.87891,18.38526,19.40625,18.38524,19.40625,52.43164,0,27.57714-14.46973,44.43066-14.47559,16.853-52.09082,53.96338-37.62451,37.11329-37.62207,52.43164,0,10.89258,5.78808,13.78906,5.78615,2.88795,17.36426,2.89356,8.84913,0,17.36328-11.23535a39.75063,39.75063,0,0,0,8.51172-24.51319v-5.44775c-.68066-1.814-1.13867-3.064-1.3623-3.74512q3.3999,1.708,4.25586,8.001.84667,6.30394,1.19238,12.42724,0,18.72-9.02246,31.32276-9.0249,12.5918-31.49317,12.59717-13.27879,0-21.61914-7.66065-8.34668-7.6604-8.34179-23.66211,0-23.14893,21.44922-50.38867,20.08446-22.80615,40.1748-45.62256,21.78516-26.89086,21.79-47.665,0-36.427-18.72559-53.623-18.728-17.18848-45.28222-17.19336-23.49171,0-36.94043,15.83154-13.45312,15.8313-13.44824,40.34521,0,22.13526,7.66015,39.15332,7.66113,17.02807,25.70508,28.93946-24.85546,0-39.49316-18.21485-14.64258-18.20947-14.64063-42.38769,0-30.64233,21.79-53.11279Q867.28809,106.98243,919.72461,106.98242ZM908.14844,390.16406q2.04345,0,10.89453,8.34131a98.91385,98.91385,0,0,0,19.06641,14.1294q-2.04346,3.06372-15.32129,17.36377-13.27736,14.29906-17.36329,14.29931-2.38623,0-10.21386-8.001a89.70115,89.70115,0,0,0-19.74707-14.81006q3.3999-4.77174,16.34179-18.04493Q904.74171,390.16382,908.14844,390.16406Z" transform="translate(-298.53117 -27)"/>
  <g>
    <path class="cls-2" d="M733.17969,523.26807q25.9746,0,34.08008,9.53271,8.10059,9.53467,22.8789,30.50586L833.752,654.585V551.15234q0-10.48534-6.91015-16.32617a59.61575,59.61575,0,0,0-16.44532-9.65185h60.0586q-17.63965,3.821-23.832,10.25927a21.85058,21.85058,0,0,0-6.19727,15.74805V667.38379q16.91895,38.17383,30.0293,50.22363,13.1045,12.04834,33.60351,12.04981,5.95313,0,14.418-3.999a66.03426,66.03426,0,0,0,15.37305-10.06152,54.53679,54.53679,0,0,1-14.77734,14.59375q-8.34375,5.42284-24.78516,5.4248-35.0332,0-57.67383-31.37695-22.64648-31.38575-49.57226-88.88769-26.93556-57.50538-42.1836-71.34864v121.5459a19.99282,19.99282,0,0,0,6.793,15.61035,60.08638,60.08638,0,0,0,17.03906,10.36719H709.10938q17.39355-3.81445,23.23632-9.89062,5.83594-6.07764,5.83789-16.08692V538.52051A33.6508,33.6508,0,0,0,728.293,531.252q-4.64649-2.02221-13.22656-2.02588-23.11816,0-33.48438,13.22706-10.36743,13.22753-10.36719,33.72265,0,25.02393,10.72461,38.72852,10.72559,13.70654,30.26758,22.998-26.93555,0-39.91992-15.72949-12.99243-15.7295-12.98877-38.6084,0-32.17383,19.06641-46.23535Q697.429,523.26952,733.17969,523.26807Z" transform="translate(-298.53117 -27)"/>
    <path class="cls-2" d="M915.25781,577.36816q9.29444,0,15.3711,3.34766,6.07763,3.35157,16.56445,13.86719l-57.91309,58.0957q4.76367,7.86475,11.79688,10.12891a51.503,51.503,0,0,0,15.84863,2.26367,34.705,34.705,0,0,0,16.56348-4.126,110.18437,110.18437,0,0,0,13.94238-8.74316q-9.53613,14.65722-20.97266,21.98535a47.54054,47.54054,0,0,1-26.21582,7.32813q-21.21533,0-30.02929-13.61426a53.036,53.036,0,0,1-8.81836-29.38086q0-27.70606,15.49121-44.42871Q892.376,577.36767,915.25781,577.36816Zm-28.123,69.82911q8.33935-8.13869,16.68261-16.27735,12.62988-13.64062,12.63184-20.585,0-8.37891-4.05176-13.04492a13.50591,13.50591,0,0,0-10.72461-4.66992q-8.34521,0-13.1084,9.93554-4.76952,9.93165-4.76562,23.5752a79.18425,79.18425,0,0,0,.71484,10.89258A46.59167,46.59167,0,0,0,887.13477,647.19727Z" transform="translate(-298.53117 -27)"/>
    <path class="cls-2" d="M1013.9209,577.36816q9.29444,0,15.37109,3.34766,6.07764,3.35157,16.56446,13.86719l-57.91309,58.0957q4.76367,7.86475,11.79687,10.12891a51.503,51.503,0,0,0,15.84864,2.26367,34.705,34.705,0,0,0,16.56347-4.126,110.18379,110.18379,0,0,0,13.94239-8.74316q-9.53615,14.65722-20.97266,21.98535a47.54054,47.54054,0,0,1-26.21582,7.32813q-21.21533,0-30.0293-13.61426a53.03606,53.03606,0,0,1-8.81836-29.38086q0-27.70606,15.49121-44.42871Q991.03907,577.36767,1013.9209,577.36816Zm-28.123,69.82911q8.33935-8.13869,16.68262-16.27735,12.62988-13.64062,12.63183-20.585,0-8.37891-4.05175-13.04492a13.50592,13.50592,0,0,0-10.72461-4.66992q-8.34522,0-13.1084,9.93554-4.76953,9.93165-4.76563,23.5752a79.18421,79.18421,0,0,0,.71485,10.89258A46.59164,46.59164,0,0,0,985.79785,647.19727Z" transform="translate(-298.53117 -27)"/>
    <path class="cls-2" d="M1142.85059,666.2666q.23438,3.09522,3.09863,3.09473a11.83922,11.83922,0,0,0,5.124-1.49317q2.97657-1.49706,9.65235-5.17968-2.86085,6.12158-10.248,12.12109-7.39014,5.99853-14.06152,6.70606-3.81445,0-9.89063-5.44043a17.88411,17.88411,0,0,1-6.07715-13.957V649.3418q-14.2998,14.19873-24.42871,23.18457-10.13232,8.99266-17.5166,8.98926-8.105,0-14.41895-9.62989-6.3164-9.62988-6.31543-25.56054,0-32.335,17.63672-50.1709,17.63379-17.83008,45.043-17.833V562.11523q0-17.15917,9.05664-28.957,9.05421-11.79711,24.54688-11.79687h21.21094q-7.62891,13.80249-20.01856,14.63476-12.39551.832-12.39355,4.40137Zm-62.20313-38.05371q0,11.64111,3.81348,17.09961a12.0981,12.0981,0,0,0,10.48633,5.459,26.58636,26.58636,0,0,0,12.27441-3.44043,66.89528,66.89528,0,0,0,13.22656-9.38378V584.99414q-17.874,0-28.83691,13.17871A45.66994,45.66994,0,0,0,1080.64746,628.21289Z" transform="translate(-298.53117 -27)"/>
  </g>
</svg>
